<svg xmlns="http://www.w3.org/2000/svg" width="256" height="256" viewBox="0 0 100 100"><rect width="100" height="100" rx="20" fill="#6e4e52"></rect><path fill="#fff" d="M70.43 82.40L70.43 82.40L48.47 82.40Q37.22 82.40 31.78 77.90Q26.33 73.40 26.33 64.04L26.33 64.04L26.33 36.05Q26.33 26.69 31.78 22.15Q37.22 17.60 48.47 17.60L48.47 17.60L70.43 17.60Q72.14 17.60 72.91 18.37Q73.67 19.13 73.67 20.84L73.67 20.84L73.67 31.73Q73.67 33.44 72.91 34.21Q72.14 34.97 70.43 34.97L70.43 34.97L52.34 34.97Q49.55 34.97 48.20 36.10Q46.85 37.22 46.85 39.47L46.85 39.47L46.85 60.89Q46.85 63.14 48.20 64.18Q49.55 65.21 52.34 65.21L52.34 65.21L70.43 65.21Q72.14 65.21 72.91 65.98Q73.67 66.74 73.67 68.45L73.67 68.45L73.67 79.16Q73.67 80.87 72.91 81.64Q72.14 82.40 70.43 82.40Z"></path></svg>